<svg width="19" height="20" viewBox="0 0 19 20" fill="none" xmlns="http://www.w3.org/2000/svg">
<path d="M18.1836 1.89648C19 2.71289 19 4.01172 18.1836 4.82812L17.0703 5.94141L13.4336 2.30469L14.5469 1.19141C15.3633 0.375 16.6621 0.375 17.4785 1.19141L18.1836 1.89648ZM6.38281 9.35547L12.5801 3.1582L16.2168 6.79492L10.0195 12.9922C9.79688 13.2148 9.5 13.4004 9.20312 13.5117L5.90039 14.5879C5.56641 14.6992 5.23242 14.625 5.00977 14.3652C4.75 14.1426 4.67578 13.7715 4.78711 13.4746L5.86328 10.1719C5.97461 9.875 6.16016 9.57812 6.38281 9.35547ZM7.125 2.75C7.75586 2.75 8.3125 3.30664 8.3125 3.9375C8.3125 4.60547 7.75586 5.125 7.125 5.125H3.5625C2.89453 5.125 2.375 5.68164 2.375 6.3125V15.8125C2.375 16.4805 2.89453 17 3.5625 17H13.0625C13.6934 17 14.25 16.4805 14.25 15.8125V12.25C14.25 11.6191 14.7695 11.0625 15.4375 11.0625C16.0684 11.0625 16.625 11.6191 16.625 12.25V15.8125C16.625 17.7793 15.0293 19.375 13.0625 19.375H3.5625C1.55859 19.375 0 17.7793 0 15.8125V6.3125C0 4.3457 1.55859 2.75 3.5625 2.75H7.125Z" fill="#FFB000"/>
</svg>
